<svg width="22" height="22" viewBox="0 0 22 22" fill="none" xmlns="http://www.w3.org/2000/svg">
<path d="M20.1625 5.46259L10.6724 14.9512C9.72734 15.8961 6.92206 16.3337 6.29535 15.7071C5.66864 15.0805 6.0964 12.2757 7.04143 11.3308L16.5415 1.83219C16.7758 1.57663 17.0594 1.3712 17.3753 1.22828C17.6912 1.08535 18.0328 1.00787 18.3794 1.00057C18.726 0.993277 19.0706 1.05628 19.3922 1.18579C19.7138 1.3153 20.0059 1.50865 20.2507 1.75412C20.4955 1.99959 20.6881 2.29211 20.8167 2.61403C20.9454 2.93596 21.0075 3.2806 20.9993 3.62717C20.991 3.97375 20.9125 4.31509 20.7688 4.63054C20.6249 4.94598 20.4187 5.22904 20.1625 5.46259Z" stroke="black" stroke-linecap="round" stroke-linejoin="round"/>
<path d="M10 3H5C3.93913 3 2.92178 3.42142 2.17163 4.17157C1.42149 4.92172 1 5.93913 1 7V17C1 18.0609 1.42149 19.0783 2.17163 19.8284C2.92178 20.5786 3.93913 21 5 21H16C18.21 21 19 19.2 19 17V12" stroke="black" stroke-linecap="round" stroke-linejoin="round"/>
</svg>
