<svg width="48" height="47" viewBox="0 0 48 47" fill="none" xmlns="http://www.w3.org/2000/svg">
<g filter="url(#filter0_i_209_52)">
<path d="M39.4766 2.12107C35.9209 0.210294 32.4503 -0.281543 29.2714 0.14048C15.6463 1.94926 -9.02199 23.3616 4.30492 26.7244C13.2192 28.9738 7.19136 45.0118 16.2958 46.2902C18.745 46.6342 21.279 46.618 23.744 46.3681C32.622 45.4681 40.4205 39.7812 44.264 31.7279C49.4633 20.8337 50.387 7.9843 39.4766 2.12107Z" fill="#D9D9D9"/>
</g>
<ellipse cx="25.4033" cy="17.6449" rx="3.63158" ry="3.37881" fill="#2F2525"/>
<path d="M25.3567 21.3991C29.5682 21.3991 31.4468 25.4037 31.8597 27.4059H18.8536C19.2665 25.4037 21.1452 21.3991 25.3567 21.3991Z" fill="#2F2525"/>
<defs>
<filter id="filter0_i_209_52" x="0.475586" y="0" width="47.5244" height="50.5525" filterUnits="userSpaceOnUse" color-interpolation-filters="sRGB">
<feFlood flood-opacity="0" result="BackgroundImageFix"/>
<feBlend mode="normal" in="SourceGraphic" in2="BackgroundImageFix" result="shape"/>
<feColorMatrix in="SourceAlpha" type="matrix" values="0 0 0 0 0 0 0 0 0 0 0 0 0 0 0 0 0 0 127 0" result="hardAlpha"/>
<feOffset dy="4"/>
<feGaussianBlur stdDeviation="8.25"/>
<feComposite in2="hardAlpha" operator="arithmetic" k2="-1" k3="1"/>
<feColorMatrix type="matrix" values="0 0 0 0 0 0 0 0 0 0 0 0 0 0 0 0 0 0 0.25 0"/>
<feBlend mode="normal" in2="shape" result="effect1_innerShadow_209_52"/>
</filter>
</defs>
</svg>
